<?xml version="1.0" encoding="UTF-8" standalone="no"?>
<!-- Generator: Adobe Illustrator 16.0.0, SVG Export Plug-In . SVG Version: 6.00 Build 0)  -->

<svg
   version="1.1"
   id="Layer_1"
   x="0px"
   y="0px"
   width="512px"
   height="512px"
   viewBox="0 0 512 512"
   enable-background="new 0 0 512 512"
   xml:space="preserve"
   sodipodi:docname="drill.svg"
   inkscape:version="1.1.1 (3bf5ae0d25, 2021-09-20, custom)"
   xmlns:inkscape="http://www.inkscape.org/namespaces/inkscape"
   xmlns:sodipodi="http://sodipodi.sourceforge.net/DTD/sodipodi-0.dtd"
   xmlns="http://www.w3.org/2000/svg"
   xmlns:svg="http://www.w3.org/2000/svg"><defs
   id="defs13" /><sodipodi:namedview
   id="namedview11"
   borderopacity="1.0" />
<path
   fill="#FFFFFF"
   d="M66.92,369.26c59.93,0.119,119.87,0.09,179.8,0.02c-0.1,20.56,0.12,21.12-0.1,41.68  c-0.16,8.601-8.11,15.671-16.61,15.351c-49.01,0.05-98.02,0.03-147.02,0.02C73.93,426.53,66.03,418,66.69,409  C66.79,389.09,66.37,389.16,66.92,369.26z"
   id="path2" />
<path
   fill="#FFFFFF"
   d="M477.81,138.287c-0.41-3.24-3.96-4.341-6.771-4.17c-27.6,0.029-55.199,0.01-82.81,0.02  c0.58-7.16-8.91-20.24-8.91-20.24s-4.14-6.84-8.26-6.5c-12.37-0.09-1.75-0.069-14.11-0.02c-3.41-0.351-6.979,2.18-6.59,5.85  c0.016,10.455,0.016,52.299,0,62.754c-0.39,3.67,3.18,6.2,6.59,5.85c12.36,0.05,1.74,0.07,14.11-0.02c4.12,0.34,8.26-6.5,8.26-6.5  s9.49-13.08,8.91-20.24c27.61,0.01,55.21-0.01,82.81,0.02c2.811,0.171,6.36-0.93,6.771-4.17c0.448-4.204,0.535-4.42,0.344-6.316  C478.345,142.707,478.258,142.491,477.81,138.287z"
   id="path4" />
<path
   fill="#FFFFFF"
   d="M343.5,174.25c0,6.627-5.373,12-12,12h-5.75c-6.627,0-12-5.373-12-12v-54.916c0-6.627,5.373-12,12-12h5.75  c6.627,0,12,5.373,12,12V174.25z"
   id="path6" />
<path
   fill="#FFFFFF"
   d="M308.289,177.03c-0.029-21.35,0.03-42.7-0.029-64.05c0.21-3.021-1.221-5.88-4.021-7.16  C281.99,93.28,256.81,84.44,231,85.17c-58.69-0.04-117.38-0.029-176.07-0.01c-11.18-0.36-21.33,9.55-20.95,20.79  c0.021,26.37-0.09,52.74,0.061,79.11c-0.431,10.02,8.1,19.2,18.109,19.59c16.591,0.75,33.25-0.48,49.83,0.62  c6.59,0.08,12.61,5.93,11.061,12.77c-5.15,31.74-10.11,63.53-15.771,95.19c-0.91,5.63-3.41,11.42-8.319,14.66  c-5.471,3.449-12.341,4.38-17.221,8.84c-4.05,3.75-5.58,9.58-4.75,14.95c59.95-0.221,119.9-0.17,179.851-0.03  c0.699-7.75-3.25-15.98-10.96-18.51c-14.08-4.21-28.57-6.95-42.9-10.181c-5.79-1.18-10.25-7.06-9-13.02  c2.05-12.95,4.3-25.87,6.43-38.8c6.051-1.45,14.28,2.199,18.841-2.87c3.199-12.221,4.14-24.971,6.689-37.36  c0.53-3.63,2.17-8.76-1.84-11.03c-4.78-1.79-10.1-0.68-15.1-0.92c0.779-4.63,1.51-9.27,2.239-13.899  c13.521-0.601,27.07,0.16,40.601-0.42c21.83-1.591,42.81-9.41,61.77-20.07C306.579,183.22,308.64,180.4,308.289,177.03z   M265,168.664c0,3.13-2.537,5.667-5.668,5.667c-3.129,0-5.666-2.537-5.666-5.667v-54.5H55.167c-3.13,0-5.667-2.537-5.667-5.667  c0-3.13,2.537-5.667,5.667-5.667h204.166c3.13,0,5.667,2.537,5.667,5.667V168.664z"
   id="path8" />
</svg>
